<svg width="32" height="32" viewBox="0 0 32 32" fill="none" xmlns="http://www.w3.org/2000/svg">
<path d="M21.588 2.66663H10.4146C5.5613 2.66663 2.66797 5.55996 2.66797 10.4133V21.5733C2.66797 26.44 5.5613 29.3333 10.4146 29.3333H21.5746C26.428 29.3333 29.3213 26.44 29.3213 21.5866V10.4133C29.3346 5.55996 26.4413 2.66663 21.588 2.66663ZM20.4813 19.0666C20.868 19.4533 20.868 20.0933 20.4813 20.48C20.2813 20.68 20.028 20.7733 19.7746 20.7733C19.5213 20.7733 19.268 20.68 19.068 20.48L16.0013 17.4133L12.9346 20.48C12.7346 20.68 12.4813 20.7733 12.228 20.7733C11.9746 20.7733 11.7213 20.68 11.5213 20.48C11.1346 20.0933 11.1346 19.4533 11.5213 19.0666L14.588 16L11.5213 12.9333C11.1346 12.5466 11.1346 11.9066 11.5213 11.52C11.908 11.1333 12.548 11.1333 12.9346 11.52L16.0013 14.5866L19.068 11.52C19.4546 11.1333 20.0946 11.1333 20.4813 11.52C20.868 11.9066 20.868 12.5466 20.4813 12.9333L17.4146 16L20.4813 19.0666Z" fill="currentColor"/>
</svg>
