<svg width="48" height="48" viewBox="0 0 48 48" fill="none" xmlns="http://www.w3.org/2000/svg">
<path d="M21.5197 32.74C20.6797 32.74 19.8997 32.54 19.1997 32.14C17.5997 31.22 16.6797 29.34 16.6797 26.96V21.04C16.6797 18.68 17.5997 16.78 19.1997 15.86C20.7997 14.94 22.8797 15.08 24.9397 16.28L30.0797 19.24C32.1197 20.42 33.2997 22.16 33.2997 24C33.2997 25.84 32.1197 27.58 30.0797 28.76L24.9397 31.72C23.7797 32.4 22.5997 32.74 21.5197 32.74ZM21.5397 18.26C21.2197 18.26 20.9397 18.32 20.7197 18.46C20.0797 18.84 19.6997 19.78 19.6997 21.04V26.96C19.6997 28.22 20.0597 29.16 20.7197 29.54C21.3597 29.92 22.3597 29.76 23.4597 29.12L28.5997 26.16C29.6997 25.52 30.3197 24.74 30.3197 24C30.3197 23.26 29.6997 22.46 28.5997 21.84L23.4597 18.88C22.7397 18.46 22.0797 18.26 21.5397 18.26Z" fill="currentColor"/>
<path d="M24 45.5C12.14 45.5 2.5 35.86 2.5 24C2.5 12.14 12.14 2.5 24 2.5C35.86 2.5 45.5 12.14 45.5 24C45.5 35.86 35.86 45.5 24 45.5ZM24 5.5C13.8 5.5 5.5 13.8 5.5 24C5.5 34.2 13.8 42.5 24 42.5C34.2 42.5 42.5 34.2 42.5 24C42.5 13.8 34.2 5.5 24 5.5Z" fill="currentColor"/>
</svg>
