<svg width="301" height="72" viewBox="0 0 301 72" fill="none" xmlns="http://www.w3.org/2000/svg">
<path d="M62 35.5C62 39.5053 61.2111 43.4714 59.6783 47.1718C58.1456 50.8723 55.8989 54.2346 53.0668 57.067C50.2346 59.899 46.8723 62.146 43.1718 63.678C39.4714 65.211 35.5053 66 31.5 66V35.5H62Z" fill="#FFE600"/>
<path d="M31.5 5C35.5053 5 39.4714 5.7889 43.1718 7.3217C46.8723 8.8544 50.2346 11.1011 53.0668 13.9332C55.8989 16.7654 58.1456 20.1277 59.6783 23.8282C61.2111 27.5286 62 31.4947 62 35.5H31.5V5Z" fill="#1350FE"/>
<path d="M1 35.5C1 31.4947 1.7889 27.5286 3.3217 23.8282C4.8544 20.1277 7.1011 16.7654 9.9332 13.9332C12.7654 11.1011 16.1277 8.8544 19.8282 7.3217C23.5286 5.7889 27.4947 5 31.5 5V35.5H1Z" fill="#FF7A00"/>
<path d="M31.5 66C27.4947 66 23.5286 65.211 19.8282 63.678C16.1277 62.146 12.7654 59.899 9.9332 57.067C7.1011 54.2346 4.8544 50.8723 3.3217 47.1718C1.7889 43.4714 1 39.5053 1 35.5H31.5V66Z" fill="#25D8FF"/>
<path d="M45 31C41.65 31 39 28.1519 39 24.1291C39 21.5359 40.95 18.1004 45 14C49.05 18.1004 51 21.5248 51 24.1291C51 28.1519 48.35 31 45 31Z" fill="#25D8FF"/>
<path d="M18.7148 40.4287C22.7151 44.2378 24.7148 47.7761 24.7148 51.0412C24.7148 54.559 23.3293 56.9818 21.3209 58.0671C21.5718 57.5061 21.7148 56.8195 21.7148 56.0207C21.7148 54.3875 20.7144 52.6195 18.7148 50.7144C16.7151 52.6195 15.7148 54.3875 15.7148 56.0207C15.7148 56.8207 15.8577 57.5061 16.1075 58.0671C14.1002 56.9818 12.7148 54.559 12.7148 51.0412C12.7148 47.7761 14.7144 44.2378 18.7148 40.4287Z" fill="#1350FE"/>
<path d="M41.5 40.5L37.5 51.5H41.5L39.5 60.5L53 46.5H47L49 40.5H41.5Z" fill="#FF7A00"/>
<path fill-rule="evenodd" clip-rule="evenodd" d="M18.185 31.4997C22.244 31.4997 25.25 28.6597 25.25 24.7497C25.25 22.4127 24.157 21.2607 22.572 19.5917L22.551 19.5687C21.111 18.0517 19.412 16.2177 18.902 13.0117C18.1468 13.4553 17.4952 14.0554 16.991 14.7717C16.204 15.9157 15.844 17.4047 16.775 19.2667C17.378 20.4717 17.552 22.0067 16.498 23.0607C15.841 23.7177 14.736 24.1607 13.542 23.6467C12.79 23.3227 12.189 22.6917 11.704 21.8567C11.137 22.5627 10.75 23.5967 10.75 24.7497C10.75 28.5967 14.038 31.4997 18.185 31.4997Z" fill="#FFE600"/>
<path d="M78.7043 30.3121C78.7043 31.9681 78.6563 32.7601 78.5123 33.8161C79.5203 33.7681 80.1923 33.7441 82.0403 33.7441H87.1043C89.9603 33.7441 92.2403 32.9281 93.8483 31.3441C95.6723 29.5201 96.6323 26.8801 96.6323 23.5921C96.6323 20.4001 95.7443 17.8801 93.9923 16.1521C92.3843 14.5921 90.0083 13.7761 87.0563 13.7761H82.0403C80.0483 13.7761 79.4483 13.7521 78.4883 13.7041C78.6563 14.8081 78.7043 15.6001 78.7043 17.2321V30.3121ZM83.4563 29.5441V17.9761H86.6003C88.3283 17.9761 89.4803 18.3601 90.3203 19.2001C91.2563 20.1361 91.7123 21.6241 91.7123 23.6641C91.7123 25.6561 91.1843 27.2641 90.2003 28.2721C89.3363 29.1361 88.2323 29.5441 86.6723 29.5441H83.4563ZM113.059 27.7681C113.035 27.5281 113.035 27.3841 113.035 27.2881C112.963 25.9201 112.867 24.9121 112.675 24.1441C111.835 20.5681 109.219 18.5281 105.475 18.5281C100.891 18.5281 97.8433 21.6721 97.8433 26.4241C97.8433 28.8001 98.6113 30.8401 100.027 32.2801C101.395 33.6481 103.243 34.3201 105.595 34.3201C107.971 34.3201 109.891 33.6241 111.259 32.2801C111.931 31.6081 112.291 31.0561 112.843 29.8081L108.667 28.6321C108.475 29.2561 108.307 29.5201 107.947 29.8561C107.323 30.4321 106.483 30.7441 105.523 30.7441C103.627 30.7441 102.499 29.7121 102.259 27.7681H113.059ZM102.331 24.4561C102.739 22.8721 103.771 22.1041 105.475 22.1041C107.131 22.1041 108.163 22.9201 108.499 24.4561H102.331ZM113.526 19.1041C114.054 20.3281 114.39 21.0961 114.534 21.4321L118.566 31.7281C118.974 32.7601 119.094 33.1441 119.214 33.7441H124.47C124.59 33.1441 124.71 32.7601 125.118 31.7281L129.15 21.4321C129.462 20.6401 129.654 20.1841 130.134 19.1041H124.806C124.758 19.6321 124.614 20.2801 124.35 21.1681L122.118 28.6081C122.094 28.6801 122.07 28.7761 122.022 28.8961C121.998 29.0161 121.974 29.0881 121.95 29.1361C121.926 29.2321 121.902 29.3521 121.83 29.5681C121.71 29.1601 121.71 29.1361 121.638 28.8961C121.59 28.7761 121.566 28.6801 121.542 28.6321L119.31 21.1681C119.022 20.1841 118.902 19.6801 118.854 19.1041H113.526ZM131.264 13.7761V17.3761H136.136V13.7761H131.264ZM131.192 19.1041C131.336 20.1841 131.384 21.1681 131.384 22.7281V30.1201C131.384 31.6561 131.336 32.5681 131.192 33.7441H136.208C136.088 32.7121 136.016 31.4161 136.016 30.1201V22.7281C136.016 21.0481 136.064 20.0881 136.208 19.1041H131.192Z" fill="currentColor"/>
<path d="M153.408 23.5443C152.616 20.3523 150.048 18.5283 146.352 18.5283C141.672 18.5283 138.648 21.6003 138.648 26.4003C138.648 28.7523 139.416 30.8643 140.808 32.2323C142.128 33.5763 144.096 34.2963 146.4 34.2963C149.184 34.2963 151.368 33.3123 152.568 31.5363C153.024 30.8403 153.312 30.1923 153.576 29.1603L149.16 28.4643C149.064 29.0163 148.944 29.2563 148.728 29.5683C148.248 30.2403 147.384 30.6243 146.448 30.6243C144.528 30.6243 143.304 28.9443 143.304 26.3523C143.304 23.7123 144.456 22.1763 146.4 22.1763C147.264 22.1763 147.936 22.4643 148.416 23.0163C148.728 23.3763 148.872 23.7123 149.088 24.4323L153.408 23.5443ZM170.876 27.7683C170.852 27.5283 170.852 27.3843 170.852 27.2883C170.78 25.9203 170.684 24.9123 170.492 24.1443C169.652 20.5683 167.036 18.5283 163.292 18.5283C158.708 18.5283 155.66 21.6723 155.66 26.4243C155.66 28.8003 156.428 30.8403 157.844 32.2803C159.212 33.6483 161.06 34.3203 163.412 34.3203C165.788 34.3203 167.708 33.6243 169.076 32.2803C169.748 31.6083 170.108 31.0563 170.66 29.8083L166.484 28.6323C166.292 29.2563 166.124 29.5203 165.764 29.8563C165.14 30.4323 164.3 30.7443 163.34 30.7443C161.444 30.7443 160.316 29.7123 160.076 27.7683H170.876ZM160.148 24.4563C160.556 22.8723 161.588 22.1043 163.292 22.1043C164.948 22.1043 165.98 22.9203 166.316 24.4563H160.148Z" fill="currentColor"/>
<path d="M93.5363 55.4239C92.5043 55.5439 91.4483 55.5919 89.6243 55.5919H83.4323V51.5599H88.6163C90.2723 51.5599 91.0883 51.6079 92.2163 51.7279V47.2879C90.7763 47.4319 90.2003 47.4559 88.6163 47.4559H83.4323V43.9279H89.6723C91.2803 43.9279 92.1443 43.9759 93.2483 44.0959V39.6079C92.1203 39.7279 91.3043 39.7759 89.6723 39.7759H82.0163C80.1443 39.7759 79.4723 39.7519 78.4883 39.7039C78.6323 40.8799 78.6803 41.7199 78.6803 43.2079V56.3119C78.6803 57.9679 78.6323 58.8559 78.4883 59.8159C79.5203 59.7679 80.1923 59.7439 82.0163 59.7439H89.5763C91.6403 59.7439 92.5043 59.7919 93.5363 59.9119V55.4239ZM100.724 59.7439C100.58 58.4959 100.532 57.4879 100.532 56.1199V51.2719C101.564 49.5919 102.764 48.7519 104.108 48.7519C104.828 48.7519 105.38 48.9919 105.692 49.4239C105.98 49.8319 106.076 50.2399 106.076 51.1999V56.1199C106.076 57.5839 106.028 58.5919 105.884 59.7439H110.876C110.756 58.7359 110.684 57.5359 110.684 56.1439V50.1199C110.684 48.2239 110.276 47.0479 109.316 46.0879C108.428 45.1999 107.108 44.7439 105.452 44.7439C103.484 44.7439 102.02 45.3439 100.508 46.7839C100.508 46.6159 100.532 46.2559 100.532 46.1119V45.1039H95.7563C95.9003 46.0639 95.9483 47.0719 95.9483 48.7279V56.1199C95.9483 57.6079 95.9003 58.6159 95.7563 59.7439H100.724ZM113.141 61.6159C114.821 63.4639 116.981 64.2799 120.245 64.2799C122.645 64.2799 124.661 63.7759 125.957 62.8639C127.637 61.6879 128.453 59.7439 128.453 56.8639V48.4399C128.453 47.0239 128.501 46.1839 128.645 45.1039H123.941V45.6079C123.941 45.8719 123.941 45.9439 123.941 46.1359C122.645 45.1519 121.349 44.7439 119.573 44.7439C115.469 44.7439 112.757 47.5519 112.757 51.8239C112.757 56.1919 115.397 58.9279 119.573 58.9279C121.421 58.9279 122.717 58.4479 123.941 57.3439C123.893 58.6159 123.677 59.3359 123.173 59.9119C122.597 60.6079 121.565 60.9679 120.245 60.9679C118.661 60.9679 117.437 60.4159 116.597 59.3359L113.141 61.6159ZM117.317 51.8479C117.317 49.6159 118.565 48.1519 120.485 48.1519C122.429 48.1519 123.845 49.6879 123.845 51.8239C123.845 53.9599 122.429 55.4719 120.461 55.4719C118.565 55.4719 117.317 54.0559 117.317 51.8479ZM131.266 39.7759V43.3759H136.138V39.7759H131.266ZM131.194 45.1039C131.338 46.1839 131.386 47.1679 131.386 48.7279V56.1199C131.386 57.6559 131.338 58.5679 131.194 59.7439H136.21C136.09 58.7119 136.018 57.4159 136.018 56.1199V48.7279C136.018 47.0479 136.066 46.0879 136.21 45.1039H131.194ZM143.732 59.7439C143.588 58.4959 143.54 57.4879 143.54 56.1199V51.2719C144.572 49.5919 145.772 48.7519 147.116 48.7519C147.836 48.7519 148.388 48.9919 148.7 49.4239C148.988 49.8319 149.084 50.2399 149.084 51.1999V56.1199C149.084 57.5839 149.036 58.5919 148.892 59.7439H153.884C153.764 58.7359 153.692 57.5359 153.692 56.1439V50.1199C153.692 48.2239 153.284 47.0479 152.324 46.0879C151.436 45.1999 150.116 44.7439 148.46 44.7439C146.492 44.7439 145.028 45.3439 143.516 46.7839C143.516 46.6159 143.54 46.2559 143.54 46.1119V45.1039H138.764C138.908 46.0639 138.956 47.0719 138.956 48.7279V56.1199C138.956 57.6079 138.908 58.6159 138.764 59.7439H143.732ZM170.981 53.7679C170.957 53.5279 170.957 53.3839 170.957 53.2879C170.885 51.9199 170.789 50.9119 170.597 50.1439C169.757 46.5679 167.141 44.5279 163.397 44.5279C158.813 44.5279 155.765 47.6719 155.765 52.4239C155.765 54.7999 156.533 56.8399 157.949 58.2799C159.317 59.6479 161.165 60.3199 163.517 60.3199C165.893 60.3199 167.813 59.6239 169.181 58.2799C169.853 57.6079 170.213 57.0559 170.765 55.8079L166.589 54.6319C166.397 55.2559 166.229 55.5199 165.869 55.8559C165.245 56.4319 164.405 56.7439 163.445 56.7439C161.549 56.7439 160.421 55.7119 160.181 53.7679H170.981ZM160.253 50.4559C160.661 48.8719 161.693 48.1039 163.397 48.1039C165.053 48.1039 166.085 48.9199 166.421 50.4559H160.253ZM187.505 53.7679C187.481 53.5279 187.481 53.3839 187.481 53.2879C187.409 51.9199 187.313 50.9119 187.121 50.1439C186.281 46.5679 183.665 44.5279 179.921 44.5279C175.337 44.5279 172.289 47.6719 172.289 52.4239C172.289 54.7999 173.057 56.8399 174.473 58.2799C175.841 59.6479 177.689 60.3199 180.041 60.3199C182.417 60.3199 184.337 59.6239 185.705 58.2799C186.377 57.6079 186.737 57.0559 187.289 55.8079L183.113 54.6319C182.921 55.2559 182.753 55.5199 182.393 55.8559C181.769 56.4319 180.929 56.7439 179.969 56.7439C178.073 56.7439 176.945 55.7119 176.705 53.7679H187.505ZM176.777 50.4559C177.185 48.8719 178.217 48.1039 179.921 48.1039C181.577 48.1039 182.609 48.9199 182.945 50.4559H176.777ZM201.388 45.1039C200.26 44.8639 199.78 44.8159 199.012 44.8159C196.828 44.8159 195.388 45.4639 194.212 46.9999V45.1039H189.436C189.58 46.1359 189.628 46.9759 189.628 48.7279V56.1199C189.628 57.6799 189.58 58.5439 189.436 59.7439H194.404C194.26 58.5919 194.212 57.6799 194.212 56.1439V52.3999C194.308 51.3439 194.476 50.8399 194.932 50.2639C195.628 49.3999 196.564 48.9679 197.788 48.9679C198.532 48.9679 199.132 49.0879 200.236 49.4239L201.388 45.1039ZM202.891 39.7759V43.3759H207.763V39.7759H202.891ZM202.819 45.1039C202.963 46.1839 203.011 47.1679 203.011 48.7279V56.1199C203.011 57.6559 202.963 58.5679 202.819 59.7439H207.835C207.715 58.7119 207.643 57.4159 207.643 56.1199V48.7279C207.643 47.0479 207.691 46.0879 207.835 45.1039H202.819ZM215.357 59.7439C215.213 58.4959 215.165 57.4879 215.165 56.1199V51.2719C216.197 49.5919 217.397 48.7519 218.741 48.7519C219.461 48.7519 220.013 48.9919 220.325 49.4239C220.613 49.8319 220.709 50.2399 220.709 51.1999V56.1199C220.709 57.5839 220.661 58.5919 220.517 59.7439H225.509C225.389 58.7359 225.317 57.5359 225.317 56.1439V50.1199C225.317 48.2239 224.909 47.0479 223.949 46.0879C223.061 45.1999 221.741 44.7439 220.085 44.7439C218.117 44.7439 216.653 45.3439 215.141 46.7839C215.141 46.6159 215.165 46.2559 215.165 46.1119V45.1039H210.389C210.533 46.0639 210.581 47.0719 210.581 48.7279V56.1199C210.581 57.6079 210.533 58.6159 210.389 59.7439H215.357ZM227.774 61.6159C229.454 63.4639 231.614 64.2799 234.878 64.2799C237.278 64.2799 239.294 63.7759 240.59 62.8639C242.27 61.6879 243.086 59.7439 243.086 56.8639V48.4399C243.086 47.0239 243.134 46.1839 243.278 45.1039H238.574V45.6079C238.574 45.8719 238.574 45.9439 238.574 46.1359C237.278 45.1519 235.982 44.7439 234.206 44.7439C230.102 44.7439 227.39 47.5519 227.39 51.8239C227.39 56.1919 230.03 58.9279 234.206 58.9279C236.054 58.9279 237.35 58.4479 238.574 57.3439C238.526 58.6159 238.31 59.3359 237.806 59.9119C237.23 60.6079 236.198 60.9679 234.878 60.9679C233.294 60.9679 232.07 60.4159 231.23 59.3359L227.774 61.6159ZM231.95 51.8479C231.95 49.6159 233.198 48.1519 235.118 48.1519C237.062 48.1519 238.478 49.6879 238.478 51.8239C238.478 53.9599 237.062 55.4719 235.094 55.4719C233.198 55.4719 231.95 54.0559 231.95 51.8479Z" fill="currentColor"/>
<path d="M31.5 5V66" stroke="#12112A" stroke-width="3"/>
<path d="M62 35.5H1" stroke="#12112A" stroke-width="3"/>
</svg>
